<svg width="76" height="54" viewBox="0 0 76 54" fill="none" xmlns="http://www.w3.org/2000/svg">
<path d="M14.9688 35.1001C13.3187 39.2501 10.7188 43.3501 7.24375 47.3001C6.14375 48.5501 5.99375 50.3501 6.89375 51.7501C7.59375 52.8501 8.74375 53.4501 9.99375 53.4501C10.3438 53.4501 10.6938 53.4251 11.0438 53.3001C18.3938 51.1501 35.5687 43.5251 36.0438 19.0751C36.2188 9.65012 29.3188 1.55011 20.3438 0.625115C15.3687 0.125115 10.4187 1.75011 6.74375 5.05011C4.92616 6.69848 3.47343 8.70879 2.47887 10.9519C1.48432 13.195 0.969933 15.6214 0.96875 18.0751C0.96875 26.3251 6.81875 33.5501 14.9688 35.1001ZM60.2437 0.625115C55.2937 0.125115 50.3438 1.75011 46.6688 5.05011C44.851 6.69838 43.3982 8.70867 42.4037 10.9518C41.4091 13.195 40.8948 15.6214 40.8937 18.0751C40.8937 26.3251 46.7437 33.5501 54.8937 35.1001C53.2437 39.2501 50.6437 43.3501 47.1687 47.3001C46.0687 48.5501 45.9188 50.3501 46.8187 51.7501C47.5187 52.8501 48.6688 53.4501 49.9188 53.4501C50.2687 53.4501 50.6188 53.4251 50.9688 53.3001C58.3187 51.1501 75.4938 43.5251 75.9688 19.0751V18.7251C75.9688 9.45012 69.1437 1.55011 60.2437 0.625115Z" fill="#132577"/>
</svg>
